<?xml version="1.0" encoding="utf-8"?>
<!-- Generator: Adobe Illustrator 23.1.0, SVG Export Plug-In . SVG Version: 6.00 Build 0)  -->
<svg version="1.1" id="Layer_1" xmlns="http://www.w3.org/2000/svg" xmlns:xlink="http://www.w3.org/1999/xlink" x="0px" y="0px"
	 viewBox="0 0 512 512" style="enable-background:new 0 0 512 512;" xml:space="preserve">
<style type="text/css">
	.st0{fill-rule:evenodd;clip-rule:evenodd;fill:#F9F9F9;}
</style>
<g>
	<path class="st0" d="M62.1,440.4v41.5c0,11,9,20,20,20h347.9c11,0,20-9,20-20V77.7h-47.6c-11,0-20-9-20-20V10.1H82.1H82
		c-11,0.1-19.9,9-19.9,20v110.1v110.1v82.3V440.4z"/>
</g>
<g>
	<path d="M367.4,150.2h-39.5c-5.6,0-10.1,4.5-10.1,10.1c0,5.6,4.5,10.1,10.1,10.1h39.5c5.6,0,10.1-4.5,10.1-10.1
		C377.5,154.8,372.9,150.2,367.4,150.2z"/>
	<path d="M367.4,189.9h-79.6c-5.6,0-10.1,4.5-10.1,10.1c0,5.6,4.5,10.1,10.1,10.1h79.6c5.6,0,10.1-4.5,10.1-10.1
		C377.5,194.4,372.9,189.9,367.4,189.9z"/>
	<path d="M459.9,76.7c-0.2-2.3-1.3-4.5-2.9-6.1L389.4,3c-1.9-1.9-4.5-3-7.1-3H82.1C65.5,0,52,13.5,52,30.1v220.2
		c0,5.6,4.5,10.1,10.1,10.1s10.1-4.5,10.1-10.1V30.1c0-5.5,4.4-9.9,9.9-9.9h290.1v37.6c0,16.6,13.5,30.1,30.1,30.1h37.6v394.1
		c0,5.5-4.4,9.9-9.9,9.9H82.1c-5.5,0-9.9-4.5-9.9-9.9V332.6c0-5.6-4.5-10.1-10.1-10.1S52,327.1,52,332.6v149.3
		c0,16.6,13.5,30.1,30.1,30.1h347.9c16.6,0,30.1-13.5,30.1-30.1V77.7C460,77.4,460,77,459.9,76.7C459.9,76.7,460,77,459.9,76.7
		C459.9,76.5,460,77,459.9,76.7z M392.4,57.7V34.4l33.2,33.2h-23.3C396.8,67.6,392.4,63.2,392.4,57.7z"/>
	<path d="M198.5,254.3c-4.4-3.5-10.7-2.7-14.2,1.7l-33,41.8l-8.6-6.8c-4.4-3.5-10.7-2.7-14.2,1.7c-3.5,4.4-2.7,10.7,1.7,14.2
		l16.5,13.1c1.8,1.4,4,2.2,6.3,2.2c0.4,0,0.8,0,1.2-0.1c2.7-0.3,5.1-1.7,6.7-3.8l39.2-49.7C203.6,264.1,202.9,257.8,198.5,254.3z"/>
	<path d="M198.5,352.8c-4.4-3.5-10.7-2.7-14.2,1.7l-33,41.8l-8.6-6.8c-4.4-3.5-10.7-2.7-14.2,1.6c-3.5,4.4-2.7,10.7,1.7,14.2
		l16.5,13.1c1.8,1.4,4,2.2,6.3,2.2c0.4,0,0.8,0,1.2-0.1c2.7-0.3,5.1-1.7,6.7-3.8l39.2-49.7C203.6,362.6,202.9,356.3,198.5,352.8z"/>
	<path d="M287.5,170.4h0.3c5.6,0,10.1-4.5,10.1-10.1c0-5.6-4.5-10.1-10.1-10.1h-0.3c-5.6,0-10.1,4.5-10.1,10.1
		C277.5,165.9,282,170.4,287.5,170.4z"/>
	<path d="M62.1,300.5c5.6,0,10.1-4.5,10.1-10.1v-0.3c0-5.6-4.5-10.1-10.1-10.1S52,284.6,52,290.1v0.3C52,296,56.5,300.5,62.1,300.5z
		"/>
	<path d="M233.1,264.5c0,5.6,4.5,10.1,10.1,10.1h128.3c5.6,0,10.1-4.5,10.1-10.1c0-5.6-4.5-10.1-10.1-10.1H243.2
		C237.6,254.4,233.1,258.9,233.1,264.5z"/>
	<path d="M371.5,301.8H243.2c-5.6,0-10.1,4.5-10.1,10.1c0,5.6,4.5,10.1,10.1,10.1h128.3c5.6,0,10.1-4.5,10.1-10.1
		C381.6,306.3,377,301.8,371.5,301.8z"/>
	<path d="M371.5,349.4H243.2c-5.6,0-10.1,4.5-10.1,10.1s4.5,10.1,10.1,10.1h128.3c5.6,0,10.1-4.5,10.1-10.1S377,349.4,371.5,349.4z"
		/>
	<path d="M371.5,396.8H243.2c-5.6,0-10.1,4.5-10.1,10.1c0,5.6,4.5,10.1,10.1,10.1h128.3c5.6,0,10.1-4.5,10.1-10.1
		C381.6,401.3,377,396.8,371.5,396.8z"/>
	<path d="M367.4,109.9h-79.6c-5.6,0-10.1,4.5-10.1,10.1s4.5,10.1,10.1,10.1h79.6c5.6,0,10.1-4.5,10.1-10.1
		C377.5,114.4,372.9,109.9,367.4,109.9z"/>
	<path d="M126.4,170.2v31.8c0,5.6,4.5,10.1,10.1,10.1h100c5.6,0,10.1-4.5,10.1-10.1v-31.8c0-16.7-10.2-31.1-24.6-37.2
		c6.3-7.8,10.1-17.8,10.1-28.6c0-25.1-20.4-45.6-45.6-45.6s-45.6,20.4-45.6,45.6c0,10.8,3.8,20.8,10.1,28.6
		C136.6,139.1,126.4,153.4,126.4,170.2z M186.5,78.9c14,0,25.4,11.4,25.4,25.4c0,14-11.4,25.4-25.4,25.4s-25.4-11.4-25.4-25.4
		S172.5,78.9,186.5,78.9z M146.6,170.2c0-11.2,9.1-20.3,20.3-20.3h39.2c11.2,0,20.3,9.1,20.3,20.3v21.7h-79.8V170.2z"/>
</g>
</svg>
