<?xml version="1.0" encoding="utf-8"?>
<!-- Generator: Adobe Illustrator 23.1.0, SVG Export Plug-In . SVG Version: 6.00 Build 0)  -->
<svg version="1.1" id="Layer_1" xmlns="http://www.w3.org/2000/svg" xmlns:xlink="http://www.w3.org/1999/xlink" x="0px" y="0px"
	 viewBox="0 0 512 512" style="enable-background:new 0 0 512 512;" xml:space="preserve">
<style type="text/css">
	.st0{fill:none;stroke:#000000;stroke-width:20;stroke-miterlimit:10;}
</style>
<path d="M464.9,385.7c-3.6-12.4-16.8-23.8-37.1-19.3c-0.1,0-0.1,0-0.2,0l-79.1,19.1c-1.4-5.8-4.6-10.9-9.2-14.7
	c-5.6-4.7-12.7-6.9-19.9-6.3c-4.7,0.4-20.5,2.2-37.2,4c-15.9,1.8-32.3,3.6-36.8,4c-8.3,0.8-20.8-0.4-35.3-1.8
	c-6.1-0.6-12.5-1.2-19.1-1.7c-5.5-0.4-10.3,3.7-10.8,9.2s3.7,10.3,9.2,10.8c6.4,0.5,12.7,1.1,18.7,1.7c15.5,1.5,28.9,2.8,39.1,1.8
	c4.7-0.4,20.5-2.2,37.2-4c15.9-1.8,32.4-3.6,36.9-4c1.9-0.2,3.7,0.4,5.2,1.7c1.7,1.4,2.7,3.4,2.9,5.6c0.1,1.4,0.4,5.1-9.9,9.6
	c-23.4,10.1-48.2,18.6-68.1,23.3c-5.4,1.3-8.7,6.6-7.4,12c1.3,5.4,6.6,8.7,12,7.4c21-4.9,47.1-13.8,71.5-24.4
	c8.5-3.7,13.9-8.1,17.2-12.7l87.6-21.1c7-1.5,12,0.5,13.4,5.3c1.1,3.9-0.4,8.8-6.5,11c-7,2.4-23.5,9.2-44.5,17.8
	c-27.8,11.4-62.3,25.5-89.8,35.8c-33.5,12.6-43,14.1-77.9,12.4l-55.6-2.7c-4.4-0.2-8.4,2.5-9.9,6.6l-5.3,14.9
	c-0.9,1.5-2.4,3.6-3.2,4.1c-0.9,0.5-3.6,0.8-8,0.8H70.6c-3,0-4.2-0.6-4.4-0.8c-0.1-0.2-0.6-1.5-0.1-4.4l6-34.9
	c4.4-25.5,15.6-42.8,34.2-52.9c4.9-2.6,6.7-8.7,4-13.6c-2.6-4.9-8.7-6.7-13.6-4c-24.1,13-39,35.6-44.4,67.1l-6,34.9
	c-1.8,10.6,1.4,17.1,4.5,20.7c3,3.6,8.9,7.9,19.6,7.9H145c15.3,0,21.2-3.1,28.7-15.1c0.4-0.6,0.7-1.3,0.9-1.9l3.2-9l48.3,2.3
	c37.7,1.8,49.8-0.1,85.9-13.7c27.8-10.4,62.5-24.6,90.3-36c19.9-8.2,37.1-15.2,43.6-17.5c0,0,0.1,0,0.1,0
	C463.3,414.9,468.6,398.6,464.9,385.7L464.9,385.7z"/>
<path d="M236,120c33.1,0,60-26.9,60-60S269.1,0,236,0s-60,26.9-60,60S202.9,120,236,120L236,120z M236,20c22.1,0,40,17.9,40,40
	s-17.9,40-40,40s-40-17.9-40-40S213.9,20,236,20L236,20z"/>
<path d="M146,331.2c33.1,0,60-26.9,60-60s-26.9-60-60-60s-60,26.9-60,60S112.9,331.2,146,331.2z M146,231.2c22.1,0,40,17.9,40,40
	s-17.9,40-40,40s-40-17.9-40-40S123.9,231.2,146,231.2z"/>
<path d="M366,291.2c33.1,0,60-26.9,60-60c0-33.1-26.9-60-60-60s-60,26.9-60,60C306,264.3,332.9,291.2,366,291.2z M366,191.2
	c22.1,0,40,17.9,40,40c0,22.1-17.9,40-40,40s-40-17.9-40-40C326,209.1,343.9,191.2,366,191.2z"/>
<path class="st0" d="M95.3,393.8c0,0,41.9-22.4,104.7-14.4"/>
</svg>
