<?xml version="1.0" encoding="utf-8"?>
<!-- Generator: Adobe Illustrator 23.1.0, SVG Export Plug-In . SVG Version: 6.00 Build 0)  -->
<svg version="1.1" id="Capa_1" xmlns="http://www.w3.org/2000/svg" xmlns:xlink="http://www.w3.org/1999/xlink" x="0px" y="0px"
	 viewBox="0 0 56 56" style="enable-background:new 0 0 56 56;" xml:space="preserve">
<path d="M12,24c3.3,0,6-2.7,6-6s-2.7-6-6-6s-6,2.7-6,6S8.7,24,12,24z M12,14c2.2,0,4,1.8,4,4s-1.8,4-4,4s-4-1.8-4-4S9.8,14,12,14z"
	/>
<path d="M44,24c3.3,0,6-2.7,6-6s-2.7-6-6-6s-6,2.7-6,6S40.7,24,44,24z M44,14c2.2,0,4,1.8,4,4s-1.8,4-4,4s-4-1.8-4-4S41.8,14,44,14z
	"/>
<path d="M54,26v13c0,1.7-1.3,3-3,3V31c0-2.8-2.2-5-5-5h-5c-0.6,0-1,0.4-1,1v4v1v1h-8c-0.6,0-1,0.4-1,1v3h-6v-3c0-0.6-0.4-1-1-1h-8
	v-1v-1v-4c0-0.6-0.4-1-1-1h-5c-2.8,0-5,2.2-5,5v11c-1.7,0-3-1.3-3-3V26H0v13c0,2,1.2,3.8,3,4.6V56h2V44h1h1h8v11c0,0.6,0.4,1,1,1h3
	h1h1v-1V40v-1h3h8h3v1v15v1h1h1h3c0.6,0,1-0.4,1-1V44h8h1h1v12h2V43.6c1.8-0.8,3-2.5,3-4.6V26H54z M20,37h-2h-6v-6h-2v7
	c0,0.6,0.4,1,1,1h7c0.6,0,1,0.4,1,1v14h-2V43c0-0.6-0.4-1-1-1H7V31c0-1.7,1.3-3,3-3h4v3v1v2c0,0.6,0.4,1,1,1h8v2H20z M40,42
	c-0.6,0-1,0.4-1,1v11h-2V40c0-0.6,0.4-1,1-1h7c0.6,0,1-0.4,1-1v-7h-2v6h-6h-2h-3v-2h8c0.6,0,1-0.4,1-1v-2v-1v-3h4c1.7,0,3,1.3,3,3
	v11H40z"/>
</svg>
