<?xml version="1.0" encoding="utf-8"?>
<!-- Generator: Adobe Illustrator 23.1.0, SVG Export Plug-In . SVG Version: 6.00 Build 0)  -->
<svg version="1.1" id="Layer_1" xmlns="http://www.w3.org/2000/svg" xmlns:xlink="http://www.w3.org/1999/xlink" x="0px" y="0px"
	 viewBox="0 0 512 512" style="enable-background:new 0 0 512 512;" xml:space="preserve">
<path d="M59.3,256.5c0,65.8,32.7,123.9,82.7,159.1c8.8,6.2,9.3,19.1,0.8,25.7l-0.2,0.2c-5.5,4.4-13.3,4.6-19,0.6
	C65.2,401.1,27,333.2,27,256.5C27,132,130.1,30.9,254.3,29.9v32.3C147.9,63.2,59.3,149.8,59.3,256.5z"/>
<path d="M260.2,1l59.4,40.6c3.2,2.2,3.2,6.9,0,9l-59.4,40.6c-3.6,2.5-8.6-0.1-8.6-4.5V5.5C251.7,1.1,256.6-1.5,260.2,1z"/>
<path d="M452.4,255.5c0-65.8-32.7-123.9-82.7-159.1c-8.8-6.2-9.3-19.1-0.8-25.7l0.2-0.2c5.5-4.4,13.3-4.6,19-0.6
	c58.4,41,96.5,108.8,96.5,185.6c0,124.5-102.9,225.6-227.1,226.6v-32.3C364,448.8,452.4,362.2,452.4,255.5z"/>
<path d="M251.5,511l-59.4-40.6c-3.2-2.2-3.2-6.9,0-9l59.4-40.6c3.6-2.5,8.6,0.1,8.6,4.5v81.2C260,510.9,255.1,513.5,251.5,511z"/>
<path d="M356.6,230.8l-97.3,80.7l-24.5,20.3c-5.8,4.8-13.1,7.4-20.5,7.4c-1.2,0-2.5-0.1-3.7-0.2c-8.7-1-16.7-5.6-21.9-12.6
	l-37.8-50.4c-8.5-11.4-6.2-27.6,5.2-36.1c11.4-8.5,27.6-6.2,36.1,5.2l25.5,34l0.2-0.2l105.8-87.8c11-9.1,27.2-7.6,36.3,3.4
	S367.6,221.7,356.6,230.8z"/>
<path d="M356.6,230.8l-97.3,80.7c-15.9-7.9-29.9-18.9-41.5-32.6l105.8-87.8c11-9.1,27.2-7.6,36.3,3.4S367.6,221.7,356.6,230.8z"/>
</svg>
