<?xml version="1.0" encoding="utf-8"?>
<!-- Generator: Adobe Illustrator 23.1.0, SVG Export Plug-In . SVG Version: 6.00 Build 0)  -->
<svg version="1.1" id="Layer_1" xmlns="http://www.w3.org/2000/svg" xmlns:xlink="http://www.w3.org/1999/xlink" x="0px" y="0px"
	 viewBox="0 0 30 30" style="enable-background:new 0 0 30 30;" xml:space="preserve">
<style type="text/css">
	.st0{fill:#000333;}
	.st1{fill:#000333;stroke:#000333;stroke-miterlimit:10;}
	.st2{fill:none;stroke:#000333;stroke-width:1.5;stroke-miterlimit:10;}
	.st3{fill:none;stroke:#000333;stroke-width:0.5;stroke-miterlimit:10;}
	.st4{fill:#000333;stroke:#000333;stroke-width:0.5;stroke-miterlimit:10;}
	.st5{fill:#000333;stroke:#000333;stroke-width:0.25;stroke-miterlimit:10;}
</style>
<g>
	<g>
		<g>
			<path class="st0" d="M26.31-241.8l-7.73-7.73c-0.18-0.18-0.43-0.28-0.68-0.28H4.37c-0.53,0-0.97,0.43-0.97,0.97v27.7
				c0,0.53,0.43,0.97,0.97,0.97h21.26c0.53,0,0.97-0.43,0.97-0.97v-19.97C26.59-241.37,26.5-241.62,26.31-241.8z M18.86-246.52
				c0.47,0.47,3.96,3.96,4.43,4.43h-4.43L18.86-246.52L18.86-246.52z M24.66-222.12H5.34v-25.76h11.59v6.76
				c0,0.53,0.43,0.97,0.97,0.97h6.76L24.66-222.12L24.66-222.12z"/>
		</g>
	</g>
	<g>
		<g>
			<path class="st0" d="M21.76-235.64H12.1c-0.53,0-0.97,0.43-0.97,0.97c0,0.53,0.43,0.97,0.97,0.97h9.66
				c0.53,0,0.97-0.43,0.97-0.97C22.73-235.21,22.3-235.64,21.76-235.64z"/>
		</g>
	</g>
	<g>
		<g>
			<path class="st0" d="M21.76-231.78H12.1c-0.53,0-0.97,0.43-0.97,0.97s0.43,0.97,0.97,0.97h9.66c0.53,0,0.97-0.43,0.97-0.97
				S22.3-231.78,21.76-231.78z"/>
		</g>
	</g>
	<g>
		<g>
			<path class="st0" d="M21.76-227.91H12.1c-0.53,0-0.97,0.43-0.97,0.97s0.43,0.97,0.97,0.97h9.66c0.53,0,0.97-0.43,0.97-0.97
				S22.3-227.91,21.76-227.91z"/>
		</g>
	</g>
	<g>
		<g>
			<circle class="st0" cx="8.24" cy="-234.68" r="0.97"/>
		</g>
	</g>
	<g>
		<g>
			<circle class="st0" cx="8.24" cy="-230.81" r="0.97"/>
		</g>
	</g>
	<g>
		<g>
			<circle class="st0" cx="8.24" cy="-226.95" r="0.97"/>
		</g>
	</g>
</g>
<g>
	<g>
		<g>
			<path class="st1" d="M12.21-171.74l-8.38-16.4c-1.01-1.97-1.19-4.21-0.51-6.32c0.68-2.1,2.14-3.82,4.11-4.82l0.14-0.07
				c1.16-0.59,2.46-0.91,3.76-0.91c1.5,0,2.98,0.41,4.27,1.18c1.33,0.79,2.4,1.95,3.11,3.33l8.38,16.4L12.21-171.74z M11.33-199.54
				c-1.2,0-2.36,0.28-3.44,0.83l-0.14,0.07c-1.8,0.92-3.13,2.48-3.75,4.41c-0.62,1.92-0.46,3.97,0.46,5.77l8.06,15.76l13.6-6.96
				l-8.06-15.76c-0.65-1.26-1.63-2.31-2.84-3.04C14.05-199.17,12.7-199.54,11.33-199.54z"/>
		</g>
		<g>
			<path class="st1" d="M10.81-189.27c-1.37,0-2.61-0.76-3.23-1.97c-0.44-0.86-0.52-1.84-0.22-2.76c0.3-0.92,0.94-1.67,1.8-2.11
				c0.51-0.26,1.08-0.4,1.65-0.4c1.37,0,2.61,0.76,3.23,1.97c0.91,1.78,0.2,3.97-1.58,4.87C11.95-189.4,11.38-189.27,10.81-189.27z
				 M10.8-195.8c-0.46,0-0.91,0.11-1.32,0.32c-0.69,0.35-1.2,0.95-1.44,1.69c-0.24,0.74-0.18,1.53,0.18,2.22
				c0.5,0.98,1.49,1.58,2.59,1.58c0.46,0,0.91-0.11,1.32-0.32c1.43-0.73,1.99-2.48,1.26-3.91C12.89-195.19,11.9-195.8,10.8-195.8z"
				/>
		</g>
	</g>
</g>
<g>
	<polygon class="st2" points="7.95,-139.92 0.91,-136.72 0.91,-127.11 7.95,-123.91 15,-127.11 22.05,-123.91 29.09,-127.11 
		29.09,-136.72 22.05,-139.92 22.05,-148.89 15,-152.09 7.95,-148.89 	"/>
	<polyline class="st2" points="8.59,-148.89 15,-146.33 21.41,-148.89 21.41,-148.89 22.05,-148.89 	"/>
	<line class="st2" x1="15" y1="-146.33" x2="15" y2="-127.11"/>
	<polyline class="st2" points="7.92,-139.91 22.05,-133.52 22.05,-123.91 	"/>
	<polyline class="st2" points="7.95,-123.91 7.95,-133.52 22.05,-139.92 	"/>
	<line class="st2" x1="0.91" y1="-136.72" x2="7.95" y2="-133.52"/>
	<line class="st2" x1="29.09" y1="-136.72" x2="22.05" y2="-133.52"/>
</g>
<g>
	<path class="st2" d="M7.74-101.99h-5.4c0,0-1.35,0-1.35,1.01c0,1.01,0,20.94,0,20.94s0,2.03,1.35,2.03s25.66,0,25.66,0
		s1.01,0,1.01-0.68s0-19.25,0-19.25s-0.34-1.01-1.35-1.01c-1.01,0-13.51,0-13.51,0s-1.35-0.34-1.69-1.01
		c-0.34-0.68-0.68-1.01-0.68-1.01s-0.68-1.01-1.69-1.01S7.74-101.99,7.74-101.99z"/>
	<path class="st2" d="M10.1-78.01v-15.2c0,0,0-1.35,0.68-1.35c0.68,0,5.07,0,5.07,0s1.01,0,1.69,1.01c0.68,1.01,0.68,1.01,0.68,1.01
		h0.68h10.13"/>
</g>
<g>
	<path class="st0" d="M15-38c-4.06,0-7.37-3.31-7.37-7.37s3.31-7.37,7.37-7.37s7.37,3.31,7.37,7.37S19.06-38,15-38z M15-50.9
		c-3.05,0-5.53,2.48-5.53,5.53c0,3.05,2.48,5.53,5.53,5.53s5.53-2.48,5.53-5.53C20.53-48.42,18.05-50.9,15-50.9z"/>
	<path class="st0" d="M26.98-23.26H3.02c-0.51,0-0.92-0.41-0.92-0.92v-6.34c0-0.95,0.49-1.85,1.27-2.34
		c6.92-4.32,16.34-4.31,23.26,0c0.78,0.49,1.27,1.38,1.27,2.34v6.34C27.9-23.67,27.49-23.26,26.98-23.26z M3.94-25.1h22.11v-5.42
		c0-0.32-0.15-0.62-0.4-0.77c-6.33-3.95-14.97-3.95-21.3,0c-0.25,0.15-0.4,0.45-0.4,0.77L3.94-25.1z"/>
</g>
<g>
	<path class="st2" d="M26.46,29H3.54C2.14,29,1,27.86,1,26.46V3.54C1,2.14,2.14,1,3.54,1h22.93C27.86,1,29,2.14,29,3.54v22.93
		C29,27.86,27.86,29,26.46,29z"/>
	<line class="st2" x1="1" y1="6.28" x2="29" y2="6.28"/>
	<circle class="st0" cx="3.64" cy="3.64" r="0.53"/>
	<circle class="st0" cx="6.28" cy="3.64" r="0.53"/>
	<circle class="st2" cx="15" cy="17.64" r="2.91"/>
	<circle class="st0" cx="8.92" cy="3.64" r="0.53"/>
	<polygon class="st2" points="9.98,15.79 9.45,13.68 11.04,12.09 13.15,12.62 13.68,11.04 16.32,11.04 16.85,12.62 18.96,12.09 
		20.55,13.68 20.02,15.79 21.6,16.32 21.6,18.96 20.02,19.49 20.55,21.6 18.96,23.19 16.85,22.66 16.32,24.25 14.21,24.25 
		13.15,22.66 11.04,23.19 9.45,21.6 9.98,20.02 8.4,18.96 8.4,16.32 	"/>
</g>
<g>
	<g>
		<g>
			<path class="st0" d="M3.81,43v30h22.37V43H3.81z M24.43,71.24H5.57V44.76h18.86L24.43,71.24L24.43,71.24z"/>
		</g>
	</g>
	<g>
		<g>
			<path class="st0" d="M17.38,46.52v5.29h5.29v-5.29H17.38z M21.38,50.52h-2.71V47.8h2.71V50.52z"/>
		</g>
	</g>
	<g>
		<g>
			<path class="st0" d="M7.33,64.21v5.29h5.29v-5.29H7.33z M11.33,68.21H8.62V65.5h2.71V68.21z"/>
		</g>
	</g>
	<g>
		<g>
			<rect x="7.33" y="46.52" class="st0" width="8.31" height="1.76"/>
		</g>
	</g>
	<g>
		<g>
			<rect x="7.33" y="50.05" class="st0" width="8.31" height="1.76"/>
		</g>
	</g>
	<g>
		<g>
			<rect x="14.36" y="64.19" class="st0" width="8.31" height="1.76"/>
		</g>
	</g>
	<g>
		<g>
			<rect x="14.36" y="67.73" class="st0" width="8.31" height="1.76"/>
		</g>
	</g>
	<g>
		<g>
			<rect x="7.33" y="58.53" class="st0" width="15.34" height="1.76"/>
		</g>
	</g>
	<g>
		<g>
			<rect x="7.33" y="54.99" class="st0" width="15.34" height="1.76"/>
		</g>
	</g>
</g>
<g>
	<g>
		<path class="st0" d="M3.81,95v30h22.37V95H3.81z M24.43,123.24H5.57V96.76h18.86L24.43,123.24L24.43,123.24z"/>
	</g>
</g>
<g>
	<g>
		<path class="st0" d="M17.38,98.52v5.29h5.29v-5.29H17.38z M22,103h-4v-4h4V103z"/>
	</g>
</g>
<g>
	<g>
		<rect x="7.33" y="98.52" class="st0" width="8.31" height="1.76"/>
	</g>
</g>
<g>
	<g>
		<rect x="7.33" y="102.05" class="st0" width="8.31" height="1.76"/>
	</g>
</g>
<g>
	<g>
		<rect x="14.36" y="116.19" class="st0" width="8.31" height="1.76"/>
	</g>
</g>
<g>
	<g>
		<rect x="14.36" y="119.73" class="st0" width="8.31" height="1.76"/>
	</g>
</g>
<g>
	<g>
		<rect x="7.33" y="110.53" class="st0" width="15.34" height="1.76"/>
	</g>
</g>
<g>
	<g>
		<rect x="7.33" y="106.99" class="st0" width="15.34" height="1.76"/>
	</g>
</g>
<polyline class="st3" points="18.77,101 19.77,102 21.27,99.5 "/>
<g>
	<g>
		<g>
			<path class="st0" d="M7.33,115.96v5.29h5.29v-5.29H7.33z M11.95,120.45h-4v-4h4V120.45z"/>
		</g>
	</g>
	<polyline class="st3" points="8.73,118.45 9.73,119.45 11.23,116.95 	"/>
</g>
<g>
	<path class="st0" d="M27.43,173.71c0.33-1.05,0.52-2.17,0.52-3.33c0-2.19-0.63-4.24-1.69-5.99c-0.41,0.5-0.87,0.96-1.4,1.34
		c0.76,1.39,1.24,2.96,1.24,4.65c0,0.88-0.16,1.72-0.39,2.53c-0.47-0.13-0.95-0.22-1.46-0.22c-3.06,0-5.55,2.49-5.55,5.55
		s2.49,5.55,5.55,5.55s5.55-2.49,5.55-5.55C29.8,176.38,28.86,174.72,27.43,173.71z M24.25,181.95c-2.04,0-3.7-1.66-3.7-3.7
		s1.66-3.7,3.7-3.7c2.04,0,3.7,1.66,3.7,3.7S26.29,181.95,24.25,181.95L24.25,181.95z"/>
	<path class="st0" d="M15.1,160.78c0.49,2.57,2.74,4.52,5.45,4.52c3.06,0,5.55-2.49,5.55-5.55c0-3.06-2.49-5.55-5.55-5.55
		c-2.78,0-5.07,2.06-5.47,4.73c-3.29,0.37-6.16,2.11-8.02,4.65c0.67,0.12,1.3,0.34,1.9,0.63C10.48,162.38,12.64,161.11,15.1,160.78
		L15.1,160.78z M20.55,156.05c2.04,0,3.7,1.66,3.7,3.7c0,2.04-1.66,3.7-3.7,3.7c-2.04,0-3.7-1.66-3.7-3.7S18.51,156.05,20.55,156.05
		z"/>
	<path class="st0" d="M16.39,180.1c-3.37,0-6.3-1.76-8.04-4.38c1.75-0.94,2.95-2.76,2.95-4.87c0-3.06-2.49-5.55-5.55-5.55
		s-5.55,2.49-5.55,5.55c0,3.06,2.49,5.55,5.55,5.55c0.26,0,0.51-0.04,0.76-0.08c2.02,3.36,5.68,5.63,9.88,5.63
		c0.49,0,0.97-0.04,1.44-0.1c-0.32-0.57-0.57-1.17-0.73-1.82C16.85,180.05,16.63,180.1,16.39,180.1L16.39,180.1z M5.75,174.55
		c-2.04,0-3.7-1.66-3.7-3.7s1.66-3.7,3.7-3.7c2.04,0,3.7,1.66,3.7,3.7S7.79,174.55,5.75,174.55z"/>
</g>
<g>
	<polygon class="st2" points="15,244.69 1.5,244.69 8.25,233 15,221.31 21.75,233 28.5,244.69 	"/>
	<line class="st2" x1="9.28" y1="231.08" x2="20.62" y2="231.08"/>
	<line class="st2" x1="5.71" y1="237.56" x2="24.51" y2="237.56"/>
	<line class="st2" x1="15" y1="221.68" x2="15" y2="231.08"/>
	<line class="st2" x1="12.84" y1="231.08" x2="12.84" y2="237.56"/>
	<polyline class="st2" points="18.35,237.56 18.35,244.37 18.35,244.69 	"/>
	<path class="st0" d="M13.98,242.75H9.44c-0.27,0-0.49-0.22-0.49-0.49l0,0c0-0.27,0.22-0.49,0.49-0.49h4.54
		c0.27,0,0.49,0.22,0.49,0.49l0,0C14.46,242.53,14.25,242.75,13.98,242.75z"/>
	<circle class="st0" cx="7.33" cy="242.26" r="0.65"/>
</g>
<g>
	<path class="st0" d="M28.62,289.46c-2.52-1.45-5.39-2.27-8.36-2.49c0.61,0.27,1.22,0.54,1.8,0.87c0.67,0.39,1.21,0.94,1.6,1.59
		c1.41,0.39,2.77,0.94,4.03,1.66c0.26,0.15,0.43,0.46,0.43,0.8v4.36h-3.75v1.87h4.68c0.52,0,0.94-0.42,0.94-0.94v-5.29
		C29.99,290.87,29.46,289.95,28.62,289.46z"/>
	<path class="st0" d="M21.12,289.46c-5.9-3.39-13.85-3.39-19.74,0c-0.84,0.49-1.37,1.41-1.37,2.42v5.29c0,0.52,0.42,0.94,0.94,0.94
		h20.61c0.52,0,0.94-0.42,0.94-0.94v-5.29C22.49,290.88,21.97,289.95,21.12,289.46L21.12,289.46z M20.62,296.24H1.89v-4.36
		c0-0.34,0.16-0.64,0.43-0.8c5.33-3.06,12.55-3.06,17.88,0c0.26,0.15,0.43,0.46,0.43,0.79V296.24z"/>
	<path class="st0" d="M18.28,273.8c0.16-0.02,0.31-0.04,0.47-0.04c2.58,0,4.68,2.1,4.68,4.68c0,2.58-2.1,4.68-4.68,4.68
		c-0.16,0-0.31-0.03-0.47-0.04c-0.4,0.6-0.88,1.13-1.42,1.61c0.61,0.19,1.24,0.31,1.88,0.31c3.61,0,6.56-2.94,6.56-6.56
		s-2.94-6.56-6.56-6.56c-0.64,0-1.27,0.12-1.88,0.31C17.4,272.68,17.88,273.2,18.28,273.8L18.28,273.8z"/>
	<path class="st0" d="M11.25,285c3.61,0,6.56-2.94,6.56-6.56c0-3.61-2.94-6.56-6.56-6.56s-6.56,2.94-6.56,6.56
		C4.7,282.06,7.64,285,11.25,285z M11.25,273.76c2.58,0,4.68,2.1,4.68,4.68c0,2.58-2.1,4.68-4.68,4.68s-4.68-2.1-4.68-4.68
		C6.57,275.86,8.67,273.76,11.25,273.76L11.25,273.76z"/>
</g>
<path class="st0" d="M3.16,349.83V355h23.69v-5.17H3.16z M25.85,353.97H4.15v-3.1h21.69V353.97z"/>
<rect x="4.94" y="351.74" class="st0" width="14.64" height="1.35"/>
<g>
	<g>
		<path class="st0" d="M23.46,340.47c-1.3-1.3-2.85-2.27-4.55-2.85c1.81-1.25,3-3.34,3-5.7c0-3.81-3.1-6.92-6.92-6.92
			s-6.92,3.1-6.92,6.92c0,2.36,1.19,4.45,3,5.7c-1.69,0.58-3.24,1.55-4.55,2.85c-2.26,2.26-3.51,5.27-3.51,8.46H4.9
			c0-5.57,4.53-10.1,10.1-10.1s10.1,4.53,10.1,10.1h1.87C26.97,345.74,25.72,342.73,23.46,340.47z M15,336.97
			c-2.78,0-5.05-2.26-5.05-5.05s2.26-5.05,5.05-5.05s5.05,2.26,5.05,5.05S17.78,336.97,15,336.97z"/>
	</g>
</g>
<g>
	<polygon class="st3" points="27.25,388.81 27.25,384.22 26.55,384.46 26.55,388.81 	"/>
	<path class="st2" d="M23.03,386.95l-7.86,2.67c-0.07,0.02-0.15,0.04-0.22,0.04c-0.08,0-0.15-0.01-0.22-0.04l-7.86-2.67v6.59
		l-0.01,0.09c0,0.78,3.63,2.54,8.09,2.54c4.47,0,8.08-1.75,8.08-2.54l0.01-0.09V386.95z"/>
	<path class="st2" d="M6.86,385.65l8.06,2.73c0.02,0.01,0.04,0.01,0.05,0l8.06-2.73l3.52-1.19l0.7-0.24l0.37-0.13l-12.65-4.26
		c-0.02-0.01-0.04-0.01-0.05,0l-12.65,4.26L6.86,385.65z"/>
	<path class="st3" d="M26.07,389.89v2.68c0,0.46,0.37,0.83,0.83,0.83c0.46,0,0.83-0.37,0.83-0.83v-2.68c0-0.23-0.09-0.43-0.24-0.58
		h-1.18C26.16,389.46,26.07,389.66,26.07,389.89z"/>
	<polygon class="st3" points="26.21,388.81 26.21,389.31 26.31,389.31 27.49,389.31 27.6,389.31 27.6,388.81 27.25,388.81 
		26.55,388.81 	"/>
</g>
<g>
	<path class="st4" d="M28.98,427.53H1.02c-0.23,0-0.42,0.19-0.42,0.42v22.1c0,0.23,0.19,0.42,0.42,0.42h27.96
		c0.23,0,0.42-0.19,0.42-0.42v-22.1C29.41,427.72,29.22,427.53,28.98,427.53z M1.44,449.63v-18.55h4.57c0.23,0,0.42-0.19,0.42-0.42
		c0-0.23-0.19-0.42-0.42-0.42H1.44v-1.86h27.12v1.86H8.04c-0.23,0-0.42,0.19-0.42,0.42c0,0.23,0.19,0.42,0.42,0.42h20.52v18.55H1.44
		z"/>
	<path class="st0" d="M26.25,429.3c0,0.23-0.19,0.42-0.42,0.42c-0.23,0-0.42-0.19-0.42-0.42c0-0.23,0.19-0.42,0.42-0.42
		C26.06,428.88,26.25,429.07,26.25,429.3z"/>
	<path class="st0" d="M24.89,429.3c0,0.23-0.19,0.42-0.42,0.42c-0.23,0-0.42-0.19-0.42-0.42c0-0.23,0.19-0.42,0.42-0.42
		C24.71,428.88,24.89,429.07,24.89,429.3z"/>
	<path class="st0" d="M27.6,429.3c0,0.23-0.19,0.42-0.42,0.42c-0.23,0-0.42-0.19-0.42-0.42c0-0.23,0.19-0.42,0.42-0.42
		C27.41,428.88,27.6,429.07,27.6,429.3z"/>
	<path class="st4" d="M14.55,432.94H3.72c-0.23,0-0.42,0.19-0.42,0.42v13.98c0,0.23,0.19,0.42,0.42,0.42h10.83
		c0.23,0,0.42-0.19,0.42-0.42v-13.98C14.97,433.13,14.78,432.94,14.55,432.94z M14.13,446.92H4.15v-13.14h9.98V446.92z"/>
	<path class="st4" d="M26.28,432.94H16.8c-0.23,0-0.42,0.19-0.42,0.42v4.96c0,0.23,0.19,0.42,0.42,0.42h9.47
		c0.23,0,0.42-0.19,0.42-0.42v-4.96C26.7,433.13,26.51,432.94,26.28,432.94z M25.85,437.9h-8.63v-4.12h8.63V437.9z"/>
	<path class="st4" d="M26.28,440.16H16.8c-0.23,0-0.42,0.19-0.42,0.42v6.77c0,0.23,0.19,0.42,0.42,0.42h9.47
		c0.23,0,0.42-0.19,0.42-0.42v-6.77C26.7,440.35,26.51,440.16,26.28,440.16z M25.85,446.92h-8.63V441h8.63V446.92z"/>
</g>
<g>
	<g>
		<g>
			<path class="st4" d="M29.34,494.61c-0.07-1.64-0.36-3.47-0.79-5.18c-0.43-1.64-0.97-3.18-1.61-4.36c-2.5-4.4-5.22-3.72-8.47-2.86
				c-1.04,0.25-2.15,0.54-3.29,0.64h-0.36c-1.14-0.11-2.25-0.39-3.29-0.64c-3.25-0.82-5.97-1.54-8.47,2.9
				c-0.64,1.18-1.22,2.72-1.61,4.36c-0.43,1.72-0.72,3.54-0.79,5.18c-0.07,1.82,0.11,3.15,0.5,4.08c0.39,0.86,0.97,1.39,1.72,1.61
				c0.68,0.18,1.47,0.11,2.29-0.25c1.39-0.57,3-1.79,4.58-3.25c1.11-1.07,3.18-1.61,5.26-1.61s4.15,0.54,5.26,1.61
				c1.57,1.47,3.18,2.68,4.58,3.25c0.82,0.32,1.61,0.43,2.29,0.25c0.72-0.21,1.32-0.72,1.72-1.64
				C29.23,497.79,29.41,496.47,29.34,494.61z M27.62,498.19c-0.21,0.5-0.5,0.79-0.86,0.89c-0.39,0.11-0.89,0.04-1.47-0.18
				c-1.25-0.5-2.72-1.61-4.15-2.97c-1.36-1.36-3.75-2.04-6.15-2.04s-4.79,0.68-6.18,1.97c-1.47,1.36-2.93,2.5-4.15,2.97
				c-0.57,0.21-1.07,0.32-1.47,0.18c-0.36-0.11-0.64-0.39-0.86-0.89c-0.29-0.68-0.43-1.79-0.36-3.43c0.07-1.54,0.32-3.29,0.75-4.93
				c0.39-1.54,0.89-2.97,1.5-4.04c1.97-3.54,4.25-2.97,6.97-2.25c1.11,0.29,2.25,0.57,3.5,0.68c0.04,0,0.04,0,0.07,0h0.39
				c0.04,0,0.04,0,0.07,0c1.29-0.11,2.43-0.39,3.54-0.68c2.72-0.68,5.01-1.29,6.97,2.25c0.61,1.07,1.11,2.47,1.5,4.04
				c0.39,1.64,0.68,3.36,0.75,4.93C28.08,496.33,27.94,497.44,27.62,498.19z"/>
		</g>
	</g>
	<g>
		<g>
			<path class="st0" d="M11.71,487.64c-0.36-0.32-0.79-0.57-1.29-0.61c-0.04-0.46-0.25-0.93-0.57-1.25l-0.04-0.04
				c-0.39-0.39-0.89-0.61-1.47-0.61s-1.11,0.25-1.47,0.61c-0.32,0.32-0.57,0.79-0.61,1.29c-0.5,0.04-0.93,0.25-1.29,0.57l-0.04,0.04
				c-0.39,0.39-0.61,0.89-0.61,1.47c0,0.57,0.25,1.11,0.61,1.47c0.36,0.36,0.79,0.57,1.32,0.61c0.04,0.5,0.25,0.97,0.61,1.29
				c0.39,0.39,0.89,0.61,1.47,0.61s1.11-0.25,1.47-0.61c0.32-0.36,0.57-0.79,0.61-1.29c0.5-0.04,0.97-0.25,1.29-0.61
				c0.39-0.39,0.61-0.89,0.61-1.47C12.32,488.53,12.07,488,11.71,487.64z M10.82,489.64c-0.14,0.14-0.32,0.21-0.54,0.21h-0.5
				c-0.36,0-0.68,0.29-0.68,0.68V491c0,0.21-0.07,0.39-0.21,0.54c-0.14,0.14-0.32,0.21-0.54,0.21s-0.39-0.07-0.54-0.21
				S7.6,491.22,7.6,491v-0.5c0-0.36-0.29-0.68-0.68-0.68h-0.5c-0.21,0-0.39-0.07-0.54-0.21c-0.11-0.11-0.21-0.29-0.21-0.5
				s0.07-0.39,0.21-0.54c0,0,0,0,0.04-0.04c0.14-0.11,0.32-0.18,0.5-0.18h0.5c0.36,0,0.68-0.29,0.68-0.68v-0.5
				c0-0.21,0.07-0.39,0.21-0.54s0.32-0.21,0.54-0.21s0.39,0.07,0.54,0.21c0,0,0,0,0.04,0.04c0.11,0.14,0.18,0.32,0.18,0.5v0.5
				c0,0.36,0.29,0.68,0.68,0.68h0.5c0.21,0,0.39,0.07,0.54,0.21c0.14,0.14,0.21,0.32,0.21,0.54
				C11.03,489.32,10.96,489.5,10.82,489.64z"/>
		</g>
	</g>
	<g>
		<g>
			<circle class="st0" cx="21.22" cy="486.57" r="1.25"/>
		</g>
	</g>
	<g>
		<g>
			<circle class="st0" cx="21.22" cy="491.64" r="1.25"/>
		</g>
	</g>
	<g>
		<g>
			<circle class="st0" cx="18.68" cy="489.11" r="1.25"/>
		</g>
	</g>
	<g>
		<g>
			<circle class="st0" cx="23.76" cy="489.11" r="1.25"/>
		</g>
	</g>
</g>
<g>
	<path class="st0" d="M28.93,529.47C28.93,529.47,28.93,529.47,28.93,529.47l-7.86,0v-0.87c0-1.43-1.17-2.6-2.6-2.6h-6.93
		c-1.43,0-2.6,1.17-2.6,2.6v0.87H1.08c-0.48,0-0.87,0.4-0.87,0.87v19.07c0,1.43,1.17,2.6,2.6,2.6h24.38c1.43,0,2.6-1.17,2.6-2.6
		v-19.05c0,0,0,0,0,0C29.76,529.78,29.41,529.47,28.93,529.47z M10.67,528.6c0-0.48,0.39-0.87,0.87-0.87h6.93
		c0.48,0,0.87,0.39,0.87,0.87v0.87h-8.67V528.6z M27.72,531.2l-2.69,8.07c-0.12,0.35-0.45,0.59-0.82,0.59h-4.88V539
		c0-0.48-0.39-0.87-0.87-0.87h-6.93c-0.48,0-0.87,0.39-0.87,0.87v0.87H5.79c-0.37,0-0.7-0.24-0.82-0.59l-2.69-8.07H27.72z
		 M17.6,539.87v1.73h-5.2v-1.73H17.6z M28.06,549.4c0,0.48-0.39,0.87-0.87,0.87H2.81c-0.48,0-0.87-0.39-0.87-0.87v-13.73l1.38,4.15
		c0.35,1.06,1.35,1.78,2.47,1.78h4.88v0.87c0,0.48,0.39,0.87,0.87,0.87h6.93c0.48,0,0.87-0.39,0.87-0.87v-0.87h4.88
		c1.12,0,2.11-0.71,2.47-1.78l1.38-4.15V549.4z"/>
</g>
<g>
	<path class="st5" d="M23.87,580.67c0-4.89-3.98-8.88-8.87-8.88s-8.87,3.98-8.87,8.88c0,1.98,0.67,3.79,1.77,5.27v13.37
		c0,0.32,0.17,0.61,0.44,0.77c0.27,0.16,0.61,0.16,0.89,0l5.77-3.3l5.77,3.3c0.14,0.08,0.29,0.12,0.44,0.12
		c0.15,0,0.31-0.04,0.45-0.12c0.27-0.16,0.44-0.45,0.44-0.77v-13.37C23.2,584.47,23.87,582.66,23.87,580.67L23.87,580.67z
		 M15,573.58c3.91,0,7.1,3.19,7.1,7.1c0,3.91-3.19,7.1-7.1,7.1s-7.1-3.19-7.1-7.1C7.9,576.76,11.09,573.58,15,573.58z M15.44,594.99
		c-0.27-0.16-0.61-0.16-0.88,0l-4.88,2.79v-10.05c1.49,1.13,3.32,1.82,5.32,1.82s3.84-0.69,5.32-1.82v10.05L15.44,594.99
		L15.44,594.99z"/>
</g>
<g>
	<g>
		<g>
			<path class="st0" d="M27.49,616.17c-1.22-1.25-3.06-1.82-5.8-1.82c-2.21,0-4.22,1.07-5.52,1.96c-0.06,0.04-0.13,0.09-0.18,0.13
				v-0.78c0-0.94-0.77-1.71-1.71-1.71s-1.71,0.77-1.71,1.71v4.95c0,0.12,0.01,0.23,0.03,0.34l-0.02,15.51
				c0,0.94,0.76,1.71,1.71,1.71c0.94,0,1.71-0.76,1.71-1.71l0.02-15.42c0.94-1.29,3.56-3.27,5.67-3.27c1.72,0,2.85,0.27,3.37,0.8
				c0.77,0.78,0.75,2.66,0.71,5.06c-0.01,0.48-0.01,0.98-0.01,1.5v11.97c0,0.94,0.77,1.71,1.71,1.71c0.94,0,1.71-0.77,1.71-1.71
				v-11.96c0-0.5,0.01-0.99,0.01-1.46C29.22,620.6,29.25,617.96,27.49,616.17z"/>
		</g>
	</g>
	<g>
		<g>
			<path class="st0" d="M2.75,613.96c-0.94,0-1.71,0.77-1.71,1.71v21.43c0,0.94,0.77,1.71,1.71,1.71s1.71-0.77,1.71-1.71v-21.43
				C4.46,614.72,3.69,613.96,2.75,613.96z"/>
		</g>
	</g>
	<g>
		<g>
			<path class="st0" d="M2.74,609.2c-1.07,0-1.94,0.86-1.94,1.93s0.86,1.93,1.94,1.93c1.06,0,1.92-0.85,1.93-1.91
				c0-0.01,0-0.01,0-0.02C4.68,610.06,3.81,609.2,2.74,609.2z"/>
		</g>
	</g>
</g>
</svg>
